<svg width="128" height="128" viewBox="0 0 128 128" fill="none" xmlns="http://www.w3.org/2000/svg">
<path fill-rule="evenodd" clip-rule="evenodd" d="M64.0015 0C28.6604 0 0 28.6529 0 64.0015C0 92.2783 18.3377 116.269 43.7683 124.731C46.9665 125.324 48.1414 123.343 48.1414 121.652C48.1414 120.126 48.0812 115.084 48.0542 109.737C30.2475 113.608 26.4912 102.186 26.4912 102.186C23.5803 94.7875 19.3847 92.8199 19.3847 92.8199C13.578 88.8484 19.821 88.9297 19.821 88.9297C26.249 89.381 29.6337 95.5261 29.6337 95.5261C35.3411 105.31 44.6062 102.481 48.2572 100.845C48.8334 96.7085 50.4912 93.8834 52.3219 92.2858C38.1061 90.6687 23.1621 85.1794 23.1621 60.6559C23.1621 53.6683 25.6623 47.9594 29.7571 43.4765C29.0921 41.8639 26.9018 35.3531 30.3768 26.5378C30.3768 26.5378 35.7503 24.8199 47.9774 33.1012C53.0846 31.6826 58.5604 30.971 63.9985 30.947C69.4381 30.9725 74.9169 31.6841 80.0316 33.1012C92.2467 24.8214 97.6141 26.5393 97.6141 26.5393C101.098 35.3546 98.9079 41.8639 98.243 43.478C102.347 47.9579 104.829 53.6683 104.829 60.6574C104.829 85.2381 89.8563 90.6506 75.6044 92.2332C77.9 94.2189 79.9458 98.1151 79.9458 104.087C79.9458 112.65 79.8736 119.541 79.8736 121.649C79.8736 123.349 81.026 125.346 84.2693 124.718C109.686 116.245 128 92.2633 128 63.9955C128.003 28.6544 99.3486 0 64.0015 0Z" fill="white"/>
<path d="M24.2422 91.8901C24.0993 92.209 23.5983 92.3037 23.144 92.0856C22.6777 91.875 22.419 91.4433 22.5694 91.1228C22.7048 90.7979 23.2072 90.7062 23.6721 90.9243C24.1384 91.1349 24.4032 91.5711 24.2437 91.8901H24.2422ZM26.8342 94.7844C26.5288 95.0657 25.9316 94.9348 25.5254 94.4865C25.1072 94.0397 25.029 93.4425 25.3389 93.1567C25.6518 92.8739 26.2309 93.0063 26.6476 93.453C27.0688 93.9043 27.1516 94.4955 26.8326 94.7829L26.8342 94.7844ZM29.3569 98.467C28.9658 98.7408 28.3234 98.485 27.9278 97.9149C27.5337 97.3477 27.5337 96.6663 27.9353 96.391C28.3325 96.1172 28.9643 96.3639 29.3644 96.928C29.7586 97.5072 29.7586 98.1917 29.3569 98.4685V98.467ZM32.8138 102.029C32.4633 102.416 31.7157 102.312 31.1696 101.784C30.61 101.268 30.4551 100.535 30.8056 100.149C31.1621 99.7622 31.9128 99.8705 32.4633 100.394C33.0199 100.908 33.1884 101.643 32.8138 102.028V102.029ZM37.5856 104.096C37.4291 104.599 36.71 104.826 35.985 104.614C35.2599 104.394 34.7875 103.807 34.9319 103.302C35.0824 102.796 35.8075 102.56 36.537 102.787C37.2591 103.004 37.733 103.585 37.5841 104.096H37.5856ZM42.8206 104.48C42.8402 105.006 42.2249 105.446 41.4637 105.455C40.6995 105.473 40.0797 105.045 40.0707 104.525C40.0707 103.992 40.6724 103.559 41.4366 103.547C42.1978 103.532 42.8206 103.956 42.8206 104.48ZM47.6946 103.651C47.7849 104.165 47.2584 104.695 46.5017 104.835C45.7586 104.973 45.0726 104.654 44.9763 104.143C44.8861 103.616 45.4231 103.09 46.1647 102.951C46.9214 102.819 47.5984 103.129 47.6946 103.652V103.651Z" fill="white"/>
</svg>
