<?xml version="1.0" encoding="UTF-8" standalone="no"?>
<!-- Created with Inkscape (http://www.inkscape.org/) -->

<svg
   version="1.1"
   id="svg118005"
   xml:space="preserve"
   width="1066.6667"
   height="1066.6667"
   viewBox="0 0 1066.6667 1066.6667"
   sodipodi:docname="knight-silhouette-publicdomainvectors.org.svg"
   inkscape:version="1.1.2 (b8e25be833, 2022-02-05)"
   xmlns:inkscape="http://www.inkscape.org/namespaces/inkscape"
   xmlns:sodipodi="http://sodipodi.sourceforge.net/DTD/sodipodi-0.dtd"
   xmlns="http://www.w3.org/2000/svg"
   xmlns:svg="http://www.w3.org/2000/svg"><defs
     id="defs118009"><clipPath
       clipPathUnits="userSpaceOnUse"
       id="clipPath118019"><path
         d="M 0,800 H 800 V 0 H 0 Z"
         id="path118017" /></clipPath></defs><sodipodi:namedview
     id="namedview118007"
     pagecolor="#ffffff"
     bordercolor="#666666"
     borderopacity="1.0"
     inkscape:pageshadow="2"
     inkscape:pageopacity="0.0"
     inkscape:pagecheckerboard="0"
     showgrid="false"
     inkscape:zoom="0.77906244"
     inkscape:cx="533.33337"
     inkscape:cy="533.33337"
     inkscape:window-width="1920"
     inkscape:window-height="1018"
     inkscape:window-x="-8"
     inkscape:window-y="-8"
     inkscape:window-maximized="1"
     inkscape:current-layer="g118011" /><g
     id="g118011"
     inkscape:groupmode="layer"
     inkscape:label="knight-silhouette-publicdomainvectors.org"
     transform="matrix(1.3333333,0,0,-1.3333333,0,1066.6667)"><g
       id="g118013"><g
         id="g118015"
         clip-path="url(#clipPath118019)"><path
           d="m 412.044,706.098 c -0.752,0.685 -1.608,1.267 -2.511,1.727 0.389,5.063 0.791,10.125 0.987,15.196 l -0.868,9.628 c -0.58,1.725 -1.474,3.319 -2.82,4.606 -2.535,2.48 -6.235,2.769 -9.314,4.202 -6.843,2.927 -13.462,6.399 -19.67,10.508 l 34.59,-50.231 z"
           style="fill:#003ccc;fill-opacity:1;fill-rule:nonzero;stroke:none"
           id="path118021" /><path
           d="m 410.607,725.819 c 0.008,2.257 -0.222,4.65 -0.955,6.83 l 0.868,-9.628 c 0.036,0.932 0.067,1.865 0.087,2.798"
           style="fill:#006ad4;fill-opacity:1;fill-rule:nonzero;stroke:none"
           id="path118023" /><path
           d="m 414.705,701.505 c -0.32,1.812 -1.32,3.371 -2.661,4.593 l 0.394,-4.364 z"
           style="fill:#006ad4;fill-opacity:1;fill-rule:nonzero;stroke:none"
           id="path118025" /><path
           d="m 377.848,751.965 c -1.042,0.689 -2.074,1.394 -3.091,2.12 -2.618,1.957 -5.291,5.016 -8.949,3.975 -4.623,-1.508 -6.931,-6.476 -7.985,-10.877 -5.869,-2.012 -11.835,-4.334 -16.568,-8.46 -2.597,-2.253 -3.389,-5.815 -3.755,-9.087 -0.556,-6.452 0.371,-12.889 1.197,-19.295 l 73.741,-8.607 z"
           style="fill:#5898c4;fill-opacity:1;fill-rule:nonzero;stroke:none"
           id="path118027" /><path
           d="m 338.697,710.341 c 0.114,-0.885 0.227,-1.77 0.333,-2.653 -2.136,-2.102 -4.368,-4.541 -4.547,-7.703 -0.316,-4.188 2.501,-7.763 5.47,-10.388 0.083,-2.955 0.675,-5.864 1.585,-8.681 2.161,-6.994 5.103,-14.068 10.254,-19.385 l 60.646,40.203 z"
           style="fill:#6dc9cd;fill-opacity:1;fill-rule:nonzero;stroke:none"
           id="path118029" /><path
           d="m 547.592,620.65 c -1.193,4.187 -2.393,8.371 -3.599,12.552 -0.124,1.599 -1.983,1.544 -3.12,1.971 -14.29,3.854 -28.973,7.041 -43.781,7.818 l -17.871,-12.51 z"
           style="fill:#0074ce;fill-opacity:1;fill-rule:nonzero;stroke:none"
           id="path118031" /><path
           d="m 497.092,642.991 c -4.725,0.248 -9.463,0.253 -14.205,-0.047 -1.513,-0.074 -3.011,-0.223 -4.494,-0.439 l 0.828,-12.024 z"
           style="fill:#007fd1;fill-opacity:1;fill-rule:nonzero;stroke:none"
           id="path118033" /><path
           d="m 292.459,638.136 c -8.569,-1.75 -16.078,-7.145 -21.169,-14.157 -0.215,-0.299 -0.427,-0.6 -0.637,-0.903 l 34.715,15.577 c -4.296,0.516 -8.675,0.37 -12.909,-0.517"
           style="fill:#c8c46c;fill-opacity:1;fill-rule:nonzero;stroke:none"
           id="path118035" /><path
           d="m 478.393,642.505 c -9.526,-1.383 -18.439,-5.514 -26.83,-10.156 l 27.658,-1.868 z"
           style="fill:#0097de;fill-opacity:1;fill-rule:nonzero;stroke:none"
           id="path118037" /><path
           d="m 443.814,632.872 c 2.582,1.849 5.278,3.534 8.122,4.987 -3.631,-0.234 -7.27,-0.268 -10.907,-0.234 -0.909,-0.034 -1.777,0.263 -2.59,0.6 -4.342,1.804 -8.691,3.593 -13.041,5.38 l -8.492,-8.917 z"
           style="fill:#0097de;fill-opacity:1;fill-rule:nonzero;stroke:none"
           id="path118039" /><path
           d="m 413.012,693.104 c 1.454,2.239 2.19,4.909 1.791,7.639 -0.018,0.259 -0.054,0.512 -0.098,0.762 l -2.267,0.229 z"
           style="fill:#008dde;fill-opacity:1;fill-rule:nonzero;stroke:none"
           id="path118041" /><path
           d="m 425.398,643.605 c -3.113,1.28 -6.227,2.559 -9.341,3.838 l 0.849,-12.755 z"
           style="fill:#008dde;fill-opacity:1;fill-rule:nonzero;stroke:none"
           id="path118043" /><path
           d="m 416.057,647.443 c -4.543,1.865 -9.084,3.732 -13.62,5.614 -1.15,0.482 -2.322,0.93 -3.514,1.282 -0.964,-3.046 -1.777,-6.159 -3.127,-9.067 -0.551,5.987 -1.061,11.974 -1.612,17.954 6.255,7.082 11.236,15.542 12.964,24.923 2.379,1.024 4.457,2.788 5.864,4.955 l -0.574,8.63 -60.646,-40.203 c 0.53,-0.548 1.084,-1.077 1.664,-1.585 0.151,-2.604 0.167,-5.231 0.129,-7.867 l 63.321,-17.391 z"
           style="fill:#169ee2;fill-opacity:1;fill-rule:nonzero;stroke:none"
           id="path118045" /><path
           d="m 262.553,600.253 c -0.66,-8.126 -3.078,-16.083 -6.495,-23.472 -0.116,-0.293 -0.236,-0.584 -0.354,-0.875 l 20.8,-43.233 9.391,3.42 c 4.687,7.029 8.783,14.456 12.841,21.854 0.978,1.543 1.426,3.693 3.3,4.408 2.183,1.047 4.312,2.425 6.785,2.632 0.342,-6.452 1.865,-13.015 4.835,-18.783 l 45.144,16.442 z"
           style="fill:#dae262;fill-opacity:1;fill-rule:nonzero;stroke:none"
           id="path118047" /><path
           d="m 506.828,575.267 43.453,35.887 c -0.89,3.167 -1.788,6.332 -2.689,9.496 l -68.371,9.831 z"
           style="fill:#008ad9;fill-opacity:1;fill-rule:nonzero;stroke:none"
           id="path118049" /><path
           d="m 416.906,634.688 -63.321,17.391 c -0.051,-3.576 -0.2,-7.168 -0.239,-10.733 -1.613,3.512 -2.729,7.233 -4.217,10.808 -1.965,-0.848 -3.927,-1.703 -5.891,-2.557 L 358.8,562.646 Z"
           style="fill:#74e0e0;fill-opacity:1;fill-rule:nonzero;stroke:none"
           id="path118051" /><path
           d="m 343.238,649.597 c -8.832,-3.844 -17.681,-7.666 -26.811,-10.739 -2.101,-0.585 -4.285,-1.619 -6.497,-1.005 -1.503,0.35 -3.027,0.617 -4.562,0.8 l -34.715,-15.577 c -3.46,-4.975 -6.298,-10.481 -7.961,-16.306 0.089,-2.18 0.036,-4.354 -0.139,-6.517 L 358.8,562.646 Z"
           style="fill:#afdf7b;fill-opacity:1;fill-rule:nonzero;stroke:none"
           id="path118053" /><path
           d="m 479.221,630.481 -27.658,1.868 c -0.571,-0.315 -1.137,-0.632 -1.702,-0.952 -4.882,-2.782 -9.583,-5.857 -14.131,-9.148 l 71.098,-46.982 z"
           style="fill:#009be2;fill-opacity:1;fill-rule:nonzero;stroke:none"
           id="path118055" /><path
           d="m 433.18,623.935 c 3.359,3.202 6.875,6.245 10.634,8.937 l -26.908,1.816 z"
           style="fill:#009be2;fill-opacity:1;fill-rule:nonzero;stroke:none"
           id="path118057" /><path
           d="m 393.506,519.789 113.322,55.478 -71.098,46.982 c -5.539,-4.01 -10.851,-8.34 -15.974,-12.861 2.363,3.175 5.125,6.027 7.799,8.934 1.835,1.899 3.705,3.781 5.625,5.613 l -16.274,10.753 z"
           style="fill:#14b4ec;fill-opacity:1;fill-rule:nonzero;stroke:none"
           id="path118059" /><path
           d="M 416.906,634.688 358.8,562.646 393.506,519.789 Z"
           style="fill:#67d7ef;fill-opacity:1;fill-rule:nonzero;stroke:none"
           id="path118061" /><path
           d="m 561.293,570.575 c -3.52,13.567 -7.215,27.087 -11.012,40.579 l -43.453,-35.887 z"
           style="fill:#0074d4;fill-opacity:1;fill-rule:nonzero;stroke:none"
           id="path118063" /><path
           d="m 255.704,575.906 c -3.861,-9.561 -8.643,-18.714 -13.396,-27.852 -0.978,-2.108 -2.839,-3.575 -4.354,-5.291 -4.244,-4.826 -7.874,-10.201 -10.782,-15.941 l 49.332,5.851 z"
           style="fill:#e88200;fill-opacity:1;fill-rule:nonzero;stroke:none"
           id="path118065" /><path
           d="m 358.8,562.646 -45.144,-16.442 c 1.888,-3.667 4.36,-7.012 7.49,-9.8 3.679,-1.419 7.647,-0.702 11.367,0.131 -3.224,-2.521 -7.474,-2.975 -11.422,-3.058 0.663,-10.589 1.472,-21.166 2.325,-31.738 l 13.298,-8.768 z"
           style="fill:#dcf07c;fill-opacity:1;fill-rule:nonzero;stroke:none"
           id="path118067" /><path
           d="m 281.244,529.548 c 1.621,2.133 3.166,4.318 4.651,6.545 l -9.391,-3.42 z"
           style="fill:#dcf07c;fill-opacity:1;fill-rule:nonzero;stroke:none"
           id="path118069" /><path
           d="m 506.828,575.267 -113.322,-55.478 32.359,-23.425 c -1.392,8.824 -2.087,17.758 -1.969,26.683 2.041,-9.998 4.036,-19.994 6.426,-29.91 l 56.524,-40.919 z"
           style="fill:#31bded;fill-opacity:1;fill-rule:nonzero;stroke:none"
           id="path118071" /><path
           d="m 575.206,494.798 c 0.367,4.879 0.302,9.782 -0.336,14.664 -1.571,11.181 -4.106,22.196 -6.628,33.205 -2.217,9.328 -4.542,18.629 -6.949,27.908 l -54.465,4.692 z"
           style="fill:#0069d5;fill-opacity:1;fill-rule:nonzero;stroke:none"
           id="path118073" /><path
           d="m 486.846,452.218 81.289,11.97 c 0.763,2.092 1.488,4.199 2.16,6.323 2.434,7.869 4.291,16.042 4.911,24.287 l -68.378,80.469 z"
           style="fill:#0181dd;fill-opacity:1;fill-rule:nonzero;stroke:none"
           id="path118075" /><path
           d="m 430.322,493.137 c 0.137,-0.566 0.27,-1.132 0.408,-1.698 2.233,-8.803 4.492,-17.746 8.908,-25.757 3.958,-7.3 8.915,-13.998 14.548,-20.079 l 32.66,6.615 z"
           style="fill:#8bebdb;fill-opacity:1;fill-rule:nonzero;stroke:none"
           id="path118077" /><path
           d="m 442.318,448.182 c -0.013,0.259 -0.027,0.52 -0.042,0.78 -6.042,10.002 -10.478,20.949 -13.331,32.282 -1.246,4.986 -2.279,10.034 -3.08,15.12 l -32.359,23.425 z"
           style="fill:#8bebdb;fill-opacity:1;fill-rule:nonzero;stroke:none"
           id="path118079" /><path
           d="m 227.172,526.822 c -2.775,-5.474 -4.89,-11.281 -6.245,-17.262 l 40.064,-20.27 6.464,18.075 c -0.115,3.941 -0.164,7.883 -0.43,11.81 1.009,-1.605 1.913,-3.278 2.899,-4.903 l 6.58,18.401 z"
           style="fill:#f38900;fill-opacity:1;fill-rule:nonzero;stroke:none"
           id="path118081" /><path
           d="m 358.8,562.646 -22.086,-69.675 56.792,26.818 z"
           style="fill:#b7f3bb;fill-opacity:1;fill-rule:nonzero;stroke:none"
           id="path118083" /><path
           d="m 220.927,509.56 c -0.646,-2.856 -1.119,-5.751 -1.408,-8.668 -0.627,-6.191 -1.29,-12.377 -1.976,-18.563 l 43.448,6.961 z"
           style="fill:#f77700;fill-opacity:1;fill-rule:nonzero;stroke:none"
           id="path118085" /><path
           d="m 323.416,501.739 c 0.252,-3.126 0.507,-6.252 0.765,-9.378 l 12.533,0.61 z"
           style="fill:#f2da4a;fill-opacity:1;fill-rule:nonzero;stroke:none"
           id="path118087" /><path
           d="m 269.924,514.272 c 0.302,-0.495 0.61,-0.986 0.932,-1.469 2.645,5.58 6.014,10.788 9.644,15.769 0.251,0.323 0.497,0.65 0.744,0.976 l -4.74,3.125 z"
           style="fill:#f2da4a;fill-opacity:1;fill-rule:nonzero;stroke:none"
           id="path118089" /><path
           d="m 261.42,489.311 c 0.859,1.653 1.709,3.311 2.54,4.981 1.57,3.637 3.913,7.268 3.548,11.395 -0.02,0.559 -0.037,1.119 -0.053,1.678 l -6.464,-18.075 z"
           style="fill:#f2da4a;fill-opacity:1;fill-rule:nonzero;stroke:none"
           id="path118091" /><path
           d="m 336.714,492.971 26.556,-80.982 30.236,107.8 z"
           style="fill:#d8f890;fill-opacity:1;fill-rule:nonzero;stroke:none"
           id="path118093" /><path
           d="m 363.27,411.989 79.331,30.767 c -0.093,1.809 -0.185,3.618 -0.283,5.426 l -48.812,71.607 z"
           style="fill:#c5f5c1;fill-opacity:1;fill-rule:nonzero;stroke:none"
           id="path118095" /><path
           d="m 537.729,413.201 c 5.167,5.545 9.75,11.642 13.898,17.987 6.686,10.345 12.281,21.419 16.508,33 l -81.289,-11.97 z"
           style="fill:#6cb0c4;fill-opacity:1;fill-rule:nonzero;stroke:none"
           id="path118097" /><path
           d="m 250.361,408.068 c 0.654,4.237 1.095,8.501 1.757,12.731 -0.977,0.902 -1.96,1.798 -2.941,2.695 l -3.247,-18.088 c 1.563,0.766 3.154,1.496 4.431,2.662"
           style="fill:#ffd100;fill-opacity:1;fill-rule:nonzero;stroke:none"
           id="path118099" /><path
           d="m 260.771,488.065 c 0.174,0.332 0.347,0.665 0.52,0.998 l -0.3,0.227 z"
           style="fill:#ffd100;fill-opacity:1;fill-rule:nonzero;stroke:none"
           id="path118101" /><path
           d="m 323.317,442.185 c -0.437,-3.947 -0.876,-7.893 -1.324,-11.837 -0.661,-8.44 -3.161,-16.576 -4.767,-24.864 -0.317,-1.467 -0.637,-2.935 -0.955,-4.403 l 46.999,10.908 z"
           style="fill:#ffd100;fill-opacity:1;fill-rule:nonzero;stroke:none"
           id="path118103" /><path
           d="m 261.291,489.063 c 0.043,0.083 0.086,0.166 0.129,0.248 l -0.429,-0.021 z"
           style="fill:#f9ed2d;fill-opacity:1;fill-rule:nonzero;stroke:none"
           id="path118105" /><path
           d="m 336.714,492.971 -12.533,-0.61 c 0.463,-5.626 0.93,-11.251 1.388,-16.877 0.193,-3.216 0.833,-6.448 0.379,-9.665 -0.895,-7.877 -1.758,-15.756 -2.631,-23.634 l 39.953,-30.196 z"
           style="fill:#f9ed2d;fill-opacity:1;fill-rule:nonzero;stroke:none"
           id="path118107" /><path
           d="m 217.543,482.329 c -0.875,-7.874 -1.792,-15.745 -2.741,-23.612 l 24.663,-67.734 c 0.387,0.366 0.721,0.789 0.983,1.268 1.928,3.32 1.639,7.303 1.928,10.981 1.047,0.914 2.291,1.556 3.554,2.174 l 3.247,18.088 c -5.698,5.217 -11.449,10.369 -17.203,15.506 9.816,16.216 19.984,32.269 28.797,49.065 l 0.22,1.225 z"
           style="fill:#fd9d00;fill-opacity:1;fill-rule:nonzero;stroke:none"
           id="path118109" /><path
           d="m 212.987,443.96 c -0.234,-1.791 -0.392,-3.609 -0.909,-5.346 -2.618,-10.154 -5.607,-20.213 -8.335,-30.34 -0.538,-1.342 0.461,-2.535 1.033,-3.677 2.893,-5.058 5.594,-10.224 8.549,-15.253 7.254,0.075 14.515,-0.007 21.783,0.041 1.593,-0.051 3.208,0.514 4.357,1.598 l -24.663,67.734 c -0.594,-4.92 -1.2,-9.839 -1.815,-14.757"
           style="fill:#ff9300;fill-opacity:1;fill-rule:nonzero;stroke:none"
           id="path118111" /><path
           d="m 439.518,403.839 3.834,26.488 c -0.319,4.139 -0.539,8.285 -0.751,12.429 L 363.27,411.989 Z"
           style="fill:#cbf387;fill-opacity:1;fill-rule:nonzero;stroke:none"
           id="path118113" /><path
           d="m 492.238,417.671 c 11.694,-5.766 24.171,-9.972 36.909,-12.648 3.039,2.544 5.888,5.288 8.582,8.178 l -50.883,39.017 z"
           style="fill:#8bcfa3;fill-opacity:1;fill-rule:nonzero;stroke:none"
           id="path118115" /><path
           d="m 454.186,445.603 c 3.738,-4.038 7.775,-7.802 12.016,-11.288 0.581,-0.473 1.166,-0.942 1.755,-1.406 l 18.889,19.309 z"
           style="fill:#96eaa2;fill-opacity:1;fill-rule:nonzero;stroke:none"
           id="path118117" /><path
           d="m 445.928,410.392 c -0.45,2.47 -0.847,4.946 -1.213,7.41 -0.619,4.156 -1.041,8.336 -1.363,12.525 l -3.834,-26.488 z"
           style="fill:#96eaa2;fill-opacity:1;fill-rule:nonzero;stroke:none"
           id="path118119" /><path
           d="m 447.766,401.824 c -0.715,2.831 -1.313,5.696 -1.838,8.568 l -6.41,-6.553 z"
           style="fill:#9ae292;fill-opacity:1;fill-rule:nonzero;stroke:none"
           id="path118121" /><path
           d="m 467.957,432.909 c 7.531,-5.93 15.695,-11.005 24.281,-15.238 l -5.392,34.547 z"
           style="fill:#9ae292;fill-opacity:1;fill-rule:nonzero;stroke:none"
           id="path118123" /><path
           d="m 363.27,411.989 -46.999,-10.908 c -3.146,-14.507 -6.338,-29.009 -9.44,-43.523 -0.579,-4.499 -0.758,-9.045 -1.089,-13.579 l -0.017,-0.304 32.567,-20.555 z"
           style="fill:#ffce00;fill-opacity:1;fill-rule:nonzero;stroke:none"
           id="path118125" /><path
           d="m 359.496,317.634 c 3.447,10.288 6.908,20.577 10.54,30.8 L 338.292,323.12 Z"
           style="fill:#f0d03c;fill-opacity:1;fill-rule:nonzero;stroke:none"
           id="path118127" /><path
           d="m 439.518,403.839 -50.239,-40.061 c 8.628,-19.592 19.965,-37.948 27.459,-58.053 0.481,-1.108 0.985,-2.204 1.502,-3.292 l 17.598,-4.554 z"
           style="fill:#f0d03c;fill-opacity:1;fill-rule:nonzero;stroke:none"
           id="path118129" /><path
           d="m 363.27,411.989 -24.978,-88.869 31.744,25.314 c 0.886,2.494 1.779,4.985 2.689,7.47 1.715,4.499 3.299,9.087 5.641,13.317 -2.921,5.118 -6.021,10.162 -8.769,15.383 4.326,-4.147 8.728,-8.211 13.007,-12.4 3.12,1.281 5.993,3.072 9.141,4.271 -1.323,-2.412 -3.245,-4.402 -4.767,-6.675 -0.386,-0.862 0.558,-1.619 0.758,-2.433 0.503,-1.201 1.019,-2.397 1.543,-3.589 l 50.239,40.061 z"
           style="fill:#f6e63a;fill-opacity:1;fill-rule:nonzero;stroke:none"
           id="path118131" /><path
           d="m 435.838,297.879 31.004,46.977 c -0.582,5.178 -1.428,10.325 -2.596,15.416 -1.826,7.744 -4.506,15.376 -8.777,22.127 -3.609,6.038 -5.989,12.635 -7.703,19.425 l -8.248,2.015 z"
           style="fill:#c7df6f;fill-opacity:1;fill-rule:nonzero;stroke:none"
           id="path118133" /><path
           d="m 305.725,343.675 c -0.755,-13.265 -1.643,-26.596 -0.699,-39.873 0.031,-1.375 0.288,-2.715 0.609,-4.043 l 32.657,23.361 z"
           style="fill:#feb200;fill-opacity:1;fill-rule:nonzero;stroke:none"
           id="path118135" /><path
           d="m 476.25,283.782 c -0.291,0.87 -0.618,1.729 -0.982,2.571 -2.053,4.746 -4.25,9.437 -6.717,13.984 -1.508,-1.874 -2.859,-3.864 -4.374,-5.746 0.882,4.313 2.9,8.378 3.03,12.828 0.904,12.439 1.031,25.028 -0.365,37.437 l -31.004,-46.977 z"
           style="fill:#d3bf53;fill-opacity:1;fill-rule:nonzero;stroke:none"
           id="path118137" /><path
           d="m 337.792,231.825 c 1.539,7.637 2.845,15.319 3.732,23.058 0.413,4.926 0.275,9.921 1.57,14.729 3.128,13.743 9.273,26.523 13.668,39.867 0.913,2.717 1.823,5.436 2.734,8.155 l -21.204,5.486 z"
           style="fill:#fb9b00;fill-opacity:1;fill-rule:nonzero;stroke:none"
           id="path118139" /><path
           d="m 418.24,302.433 c 2.02,-4.255 4.288,-8.381 6.598,-12.486 l 11,7.932 z"
           style="fill:#fb9b00;fill-opacity:1;fill-rule:nonzero;stroke:none"
           id="path118141" /><path
           d="m 305.635,299.759 c 0.668,-2.766 1.612,-5.484 1.374,-8.378 -0.42,-8.962 -3.334,-17.609 -6.778,-25.819 -1.234,-3.201 -3.301,-6.044 -4.515,-9.236 l 41.226,-28.602 c 0.29,1.365 0.573,2.732 0.85,4.101 l 0.5,91.295 z"
           style="fill:#ffa300;fill-opacity:1;fill-rule:nonzero;stroke:none"
           id="path118143" /><path
           d="m 424.838,289.947 c 2.796,-4.968 5.646,-9.908 8.172,-15.016 0.781,-1.498 1.199,-3.077 1.412,-4.693 l 1.416,27.641 z"
           style="fill:#f56500;fill-opacity:1;fill-rule:nonzero;stroke:none"
           id="path118145" /><path
           d="m 477.053,263.061 c 0.013,3.877 0.819,7.715 0.75,11.6 -0.021,3.104 -0.573,6.186 -1.553,9.121 l -40.412,14.097 -1.416,-27.641 c 0.42,-3.194 0.035,-6.543 0.035,-9.741 -0.503,-12.061 0.924,-24.793 7.371,-35.265 2.03,-3.24 4.346,-6.276 6.724,-9.267 l 29.316,41.615 c -0.48,1.791 -0.847,3.604 -0.815,5.481"
           style="fill:#e07000;fill-opacity:1;fill-rule:nonzero;stroke:none"
           id="path118147" /><path
           d="m 294.933,253.561 c -2.549,-11.464 -3.672,-23.197 -4.485,-34.887 -0.25,-4.846 -0.507,-9.716 -0.468,-14.576 l 46.731,22.546 c 0.078,0.359 0.154,0.719 0.231,1.08 l -41.226,28.602 c -0.339,-0.89 -0.615,-1.805 -0.783,-2.765"
           style="fill:#ff8800;fill-opacity:1;fill-rule:nonzero;stroke:none"
           id="path118149" /><path
           d="m 492.05,196.794 c -3.376,18.573 -7.882,36.939 -12.621,55.209 -0.436,1.87 -1.06,3.712 -1.561,5.577 l -29.316,-41.615 c 4.321,-5.433 8.85,-10.713 12.262,-16.787 1.422,-2.408 2.644,-4.914 3.684,-7.491 l 28.108,1.322 c -0.169,1.263 -0.352,2.525 -0.556,3.785"
           style="fill:#d54200;fill-opacity:1;fill-rule:nonzero;stroke:none"
           id="path118151" /><path
           d="m 290.621,193.791 c 0.379,-3.665 2.666,-6.779 3.12,-10.444 0.319,-2.007 0.534,-4.02 0.668,-6.035 l 24.097,-30.384 c 0.298,3.101 0.037,6.22 0.311,9.317 0.627,7.551 2.177,14.977 3.954,22.328 1.372,5.325 2.763,10.671 4.919,15.741 2.852,5.912 4.244,12.373 5.912,18.684 1.08,4.534 2.129,9.082 3.109,13.646 L 289.98,204.098 c 0.028,-3.445 0.203,-6.884 0.641,-10.307"
           style="fill:#ff7200;fill-opacity:1;fill-rule:nonzero;stroke:none"
           id="path118153" /><path
           d="m 492.606,193.009 -28.108,-1.322 c 3.447,-8.54 4.871,-17.867 4.729,-27.064 0,-2.102 -0.373,-4.444 1.054,-6.207 0.092,-0.131 0.185,-0.261 0.279,-0.392 l 23.791,19.63 c -0.595,5.117 -1.056,10.249 -1.745,15.355"
           style="fill:#db2f00;fill-opacity:1;fill-rule:nonzero;stroke:none"
           id="path118155" /><path
           d="m 293.583,151.052 c -0.146,-3.103 -1.712,-5.84 -3.091,-8.556 l 26.331,-3.883 c 0.705,2.408 1.244,4.864 1.574,7.354 0.044,0.32 0.079,0.64 0.109,0.961 l -24.097,30.384 c 0.58,-8.734 -0.35,-17.53 -0.826,-26.26"
           style="fill:#fa6800;fill-opacity:1;fill-rule:nonzero;stroke:none"
           id="path118157" /><path
           d="m 499.146,146.242 c -1.675,7.964 -2.578,16.094 -3.817,24.147 -0.384,2.415 -0.696,4.839 -0.978,7.265 l -23.791,-19.63 c 2.665,-3.695 6.072,-7.258 6.458,-12.03 0.121,-4.977 -0.15,-9.95 -0.252,-14.927 l 41.754,-7.764 c -6.518,7.597 -13.018,15.211 -19.374,22.939"
           style="fill:#ca1500;fill-opacity:1;fill-rule:nonzero;stroke:none"
           id="path118159" /><path
           d="m 524.291,116.578 c -1.924,2.241 -3.848,4.483 -5.771,6.725 l -41.754,7.764 c -0.026,-1.255 -0.043,-2.512 -0.037,-3.769 0.054,-4.975 0.165,-10.21 2.424,-14.77 1.606,-3.382 5.181,-5.539 8.88,-5.759 4.292,-0.263 8.571,-1.22 12.497,-3.004 2.928,-1.186 4.54,-4.272 7.558,-5.305 1.705,-0.689 3.444,-1.3 5.209,-1.834 l 13.033,17.615 c -0.679,0.78 -1.358,1.559 -2.039,2.337"
           style="fill:#c80b00;fill-opacity:1;fill-rule:nonzero;stroke:none"
           id="path118161" /><path
           d="m 272.909,89.353 c 3.633,-3.014 7.81,-5.552 12.308,-7.065 l -5.128,20.213 c -2.416,-4.373 -4.847,-8.735 -7.18,-13.148"
           style="fill:#e94c00;fill-opacity:1;fill-rule:nonzero;stroke:none"
           id="path118163" /><path
           d="m 290.159,141.833 c -0.551,-3.044 0.255,-6.228 -0.537,-9.259 -1.558,-6.737 -3.128,-13.488 -4.658,-20.239 -0.441,-2.294 -1.846,-4.216 -2.906,-6.256 -0.654,-1.194 -1.311,-2.387 -1.969,-3.578 l 5.128,-20.213 c 1.783,-0.6 3.615,-1.037 5.484,-1.279 l 20.883,33.078 c 0.195,3.925 0.39,7.85 0.579,11.777 0.013,1.475 0.785,2.763 1.364,4.059 1.302,2.812 2.425,5.717 3.296,8.69 l -26.331,3.883 c -0.113,-0.221 -0.224,-0.441 -0.333,-0.663"
           style="fill:#f55e00;fill-opacity:1;fill-rule:nonzero;stroke:none"
           id="path118165" /><path
           d="m 293.025,80.811 c 6.33,-0.235 12.469,2.638 16.837,7.123 0.758,0.661 0.502,1.784 0.633,2.652 0.317,7.839 0.701,15.669 1.089,23.501 L 290.701,81.009 c 0.769,-0.1 1.544,-0.168 2.324,-0.198"
           style="fill:#f15700;fill-opacity:1;fill-rule:nonzero;stroke:none"
           id="path118167" /><path
           d="m 513.297,96.626 c 5.798,-1.758 11.867,-2.668 17.91,-2.609 3.473,0.159 7.881,0.586 9.582,4.119 -5.006,5.2 -9.723,10.668 -14.459,16.105 z"
           style="fill:#b40012;fill-opacity:1;fill-rule:nonzero;stroke:none"
           id="path118169" /></g></g></g></svg>
